Coordinates
version=1
nRows=4
nColumns=63
inDegrees=yes

Units are S.I. units (second, meters, Newtons, ...)
If the header above contains a line with 'inDegrees', this indicates whether rotational values are in degrees (yes) or radians (no).

endheader
time	pelvis_tilt	pelvis_list	pelvis_rotation	pelvis_tx	pelvis_ty	pelvis_tz	hip_flexion_r	hip_adduction_r	hip_rotation_r	knee_angle_r	knee_angle_r_beta	ankle_angle_r	subtalar_angle_r	mtp_angle_r	hip_flexion_l	hip_adduction_l	hip_rotation_l	knee_angle_l	knee_angle_l_beta	ankle_angle_l	subtalar_angle_l	mtp_angle_l	L5_S1_Flex_Ext	L5_S1_Lat_Bending	L5_S1_axial_rotation	L4_L5_Flex_Ext	L4_L5_Lat_Bending	L4_L5_axial_rotation	L3_L4_Flex_Ext	L3_L4_Lat_Bending	L3_L4_axial_rotation	L2_L3_Flex_Ext	L2_L3_Lat_Bending	L2_L3_axial_rotation	L1_L2_Flex_Ext	L1_L2_Lat_Bending	L1_L2_axial_rotation	L1_T12_Flex_Ext	L1_T12_Lat_Bending	L1_T12_axial_rotation	Abs_r3	Abs_r2	Abs_r1	Abs_t1	Abs_t2	neck_flexion	neck_bending	neck_rotation	arm_flex_r	arm_add_r	arm_rot_r	elbow_flex_r	pro_sup_r	wrist_flex_r	wrist_dev_r	arm_flex_l	arm_add_l	arm_rot_l	elbow_flex_l	pro_sup_l	wrist_flex_l	wrist_dev_l
      1.85000000	     -4.67102168	    -14.04882687	     62.88735243	      0.29587009	      1.06113502	      0.25531992	     20.86504980	     -3.14740954	     -8.15729222	     27.28516646	      0.47621599	     17.43136660	      3.78705185	      0.00000000	     12.01822795	     -4.25466639	    -10.38133849	     13.25689868	      0.23137653	     27.97436281	     11.00448866	      0.00000000	      0.03848626	      0.24990868	     -0.96062927	      0.07147284	      0.33237854	     -1.02066860	      0.06322908	      0.60762796	     -1.02066860	      0.04398595	      0.60762796	     -0.84055061	      0.03573834	      0.50961378	     -0.78051128	      0.02199105	      0.38710854	     -0.72047195	      0.27490351	      2.82701695	     -5.34273180	      0.00000000	      0.00000000	      4.55458984	     -1.31762222	     -0.75500722	    -25.08380173	    -23.38986787	     14.96657852	     80.11742370	     89.11132735	     -2.17526597	      1.83641027	     12.22349403	    -14.11013985	     18.88158835	    104.81539831	     86.65129417	    -10.19281565	     -3.00913436
      1.86666667	     -5.21127328	    -14.17600986	     62.01215959	      0.29823056	      1.06224268	      0.25802137	     20.62610878	     -3.26604982	     -7.72810999	     26.77712879	      0.46734906	     16.57259223	      3.08161355	      0.00000000	     12.98947609	     -4.17920613	    -10.11019676	     14.73436811	      0.25716324	     27.28728944	      9.00059835	      0.00000000	      0.04207987	      0.24558237	     -0.94203383	      0.07814653	      0.32662455	     -1.00091094	      0.06913302	      0.59710898	     -1.00091094	      0.04809309	      0.59710898	     -0.82427960	      0.03907537	      0.50079157	     -0.76540249	      0.02404444	      0.38040709	     -0.70652537	      0.30057233	      2.77807691	     -5.23930954	      0.00000000	      0.00000000	      4.64422940	     -2.03488947	      0.85717164	    -23.35613862	    -21.70869493	     14.37565088	     80.56565853	     88.78070126	     -2.67903131	      7.06667809	      8.61518482	    -16.40502472	     18.86157067	    106.33744857	     86.03533953	     -9.01990378	     -1.09624966
      1.88333333	     -6.09841465	    -14.23571859	     60.96306300	      0.30138840	      1.06298187	      0.26124842	     20.57010059	     -3.55277707	     -6.54294864	     26.13749480	      0.45618534	     17.09653783	      4.80728477	      0.00000000	     14.36558051	     -3.87474819	    -10.05704996	     16.84183940	      0.29394555	     26.42918929	      6.54468626	      0.00000000	      0.06056169	      0.20345213	     -0.92175088	      0.11246912	      0.27059134	     -0.97936031	      0.09949680	      0.49467351	     -0.97936031	      0.06921596	      0.49467351	     -0.80653202	      0.05623759	      0.41487959	     -0.74892259	      0.03460495	      0.31514735	     -0.69131316	      0.43258611	      2.30149121	     -5.12650185	      0.00000000	      0.00000000	      4.66715185	     -2.72645585	      2.18446363	    -20.83786213	    -19.88794341	     14.65642665	     80.40076168	     88.46945571	     -4.67733425	      9.04422830	      3.97009633	    -19.75067974	     19.21610207	    105.93306884	     85.28163009	     -8.11615898	      0.85803580
      1.90000000	     -7.05024552	    -14.00512024	     60.18350675	      0.30468848	      1.06389675	      0.26430368	     20.05342227	     -4.08827754	     -5.50073362	     24.93761095	      0.43524342	     18.31819997	      8.28293207	      0.00000000	     15.71794832	     -3.11347878	     -8.58047749	     19.16590533	      0.33450815	     24.94684085	      1.95624995	      0.00000000	      0.04924840	      0.13491749	     -0.97444523	      0.09145919	      0.17944026	     -1.03534806	      0.08091019	      0.32803838	     -1.03534806	      0.05628599	      0.32803838	     -0.85263958	      0.04573206	      0.27512374	     -0.79173675	      0.02814053	      0.20898719	     -0.73083392	      0.35177636	      1.52621362	     -5.41957205	      0.00000000	      0.00000000	      4.49622934	     -3.13560202	      3.41130682	    -17.89046422	    -18.45462675	     16.20616257	     79.43009103	     88.25597199	     -8.12522832	      8.56779852	     -1.16826940	    -22.93182061	     19.22584866	    103.07276243	     85.19665322	     -7.49034208	      2.30661200
